<?xml version="1.0" encoding="UTF-8" standalone="no"?>
<!DOCTYPE svg PUBLIC "-//W3C//DTD SVG 1.1//EN"
 "http://www.w3.org/Graphics/SVG/1.1/DTD/svg11.dtd">
<!-- Generated by graphviz version 2.44.0 (20200408.0750)
 -->
<!-- Title: dependency&#45;cruiser output Pages: 1 -->
<svg width="307pt" height="143pt"
 viewBox="0.00 0.00 307.01 143.00" xmlns="http://www.w3.org/2000/svg" xmlns:xlink="http://www.w3.org/1999/xlink">
<g id="graph0" class="graph" transform="scale(1 1) rotate(0) translate(4 139)">
<title>dependency&#45;cruiser output</title>
<polygon fill="white" stroke="transparent" points="-4,4 -4,-139 303.01,-139 303.01,4 -4,4"/>
<g id="clust1" class="cluster">
<title>cluster_src</title>
<path fill="#ffffff" stroke="black" stroke-width="2" d="M20,-8C20,-8 279.01,-8 279.01,-8 285.01,-8 291.01,-14 291.01,-20 291.01,-20 291.01,-115 291.01,-115 291.01,-121 285.01,-127 279.01,-127 279.01,-127 20,-127 20,-127 14,-127 8,-121 8,-115 8,-115 8,-20 8,-20 8,-14 14,-8 20,-8"/>
<text text-anchor="middle" x="149.51" y="-114.9" font-family="Helvetica,sans-Serif" font-weight="bold" font-size="9.00">src</text>
</g>
<g id="clust2" class="cluster">
<title>cluster_src/handlers</title>
<path fill="#ffffff" stroke="black" stroke-width="2" d="M203.01,-16C203.01,-16 271.01,-16 271.01,-16 277.01,-16 283.01,-22 283.01,-28 283.01,-28 283.01,-88 283.01,-88 283.01,-94 277.01,-100 271.01,-100 271.01,-100 203.01,-100 203.01,-100 197.01,-100 191.01,-94 191.01,-88 191.01,-88 191.01,-28 191.01,-28 191.01,-22 197.01,-16 203.01,-16"/>
<text text-anchor="middle" x="237.01" y="-87.9" font-family="Helvetica,sans-Serif" font-weight="bold" font-size="9.00">handlers</text>
</g>
<g id="clust3" class="cluster">
<title>cluster_src/init</title>
<path fill="#ffffff" stroke="black" stroke-width="2" d="M28,-45C28,-45 74,-45 74,-45 80,-45 86,-51 86,-57 86,-57 86,-86 86,-86 86,-92 80,-98 74,-98 74,-98 28,-98 28,-98 22,-98 16,-92 16,-86 16,-86 16,-57 16,-57 16,-51 22,-45 28,-45"/>
<text text-anchor="middle" x="51" y="-85.9" font-family="Helvetica,sans-Serif" font-weight="bold" font-size="9.00">init</text>
</g>
<g id="clust4" class="cluster">
<title>cluster_src/listeners</title>
<path fill="#ffffff" stroke="black" stroke-width="2" d="M106,-45C106,-45 171.01,-45 171.01,-45 177.01,-45 183.01,-51 183.01,-57 183.01,-57 183.01,-86 183.01,-86 183.01,-92 177.01,-98 171.01,-98 171.01,-98 106,-98 106,-98 100,-98 94,-92 94,-86 94,-86 94,-57 94,-57 94,-51 100,-45 106,-45"/>
<text text-anchor="middle" x="138.5" y="-85.9" font-family="Helvetica,sans-Serif" font-weight="bold" font-size="9.00">listeners</text>
</g>
<!-- src/data.js -->
<g id="node1" class="node">
<title>src/data.js</title>
<g id="a_node1"><a xlink:href="src/data.js" xlink:title="data.js">
<path fill="#ccffcc" stroke="black" d="M71.8,-36.3C71.8,-36.3 30.2,-36.3 30.2,-36.3 27.1,-36.3 24,-33.2 24,-30.1 24,-30.1 24,-23.9 24,-23.9 24,-20.8 27.1,-17.7 30.2,-17.7 30.2,-17.7 71.8,-17.7 71.8,-17.7 74.9,-17.7 78,-20.8 78,-23.9 78,-23.9 78,-30.1 78,-30.1 78,-33.2 74.9,-36.3 71.8,-36.3"/>
<text text-anchor="middle" x="51" y="-24.3" font-family="Helvetica,sans-Serif" font-size="9.00">data.js</text>
</a>
</g>
</g>
<!-- src/handlers/toggle&#45;active.js -->
<g id="node2" class="node">
<title>src/handlers/toggle&#45;active.js</title>
<g id="a_node2"><a xlink:href="src/handlers/toggle-active.js" xlink:title="toggle&#45;active.js">
<path fill="#ffffcc" stroke="black" d="M268.82,-73.3C268.82,-73.3 205.2,-73.3 205.2,-73.3 202.1,-73.3 199,-70.2 199,-67.1 199,-67.1 199,-60.9 199,-60.9 199,-57.8 202.1,-54.7 205.2,-54.7 205.2,-54.7 268.82,-54.7 268.82,-54.7 271.92,-54.7 275.02,-57.8 275.02,-60.9 275.02,-60.9 275.02,-67.1 275.02,-67.1 275.02,-70.2 271.92,-73.3 268.82,-73.3"/>
<text text-anchor="middle" x="237.01" y="-61.3" font-family="Helvetica,sans-Serif" font-size="9.00">toggle&#45;active.js</text>
</a>
</g>
</g>
<!-- src/handlers/toggle&#45;open.js -->
<g id="node3" class="node">
<title>src/handlers/toggle&#45;open.js</title>
<g id="a_node3"><a xlink:href="src/handlers/toggle-open.js" xlink:title="toggle&#45;open.js">
<path fill="#ffffcc" stroke="black" d="M266.83,-42.3C266.83,-42.3 207.19,-42.3 207.19,-42.3 204.09,-42.3 200.99,-39.2 200.99,-36.1 200.99,-36.1 200.99,-29.9 200.99,-29.9 200.99,-26.8 204.09,-23.7 207.19,-23.7 207.19,-23.7 266.83,-23.7 266.83,-23.7 269.93,-23.7 273.03,-26.8 273.03,-29.9 273.03,-29.9 273.03,-36.1 273.03,-36.1 273.03,-39.2 269.93,-42.3 266.83,-42.3"/>
<text text-anchor="middle" x="237.01" y="-30.3" font-family="Helvetica,sans-Serif" font-size="9.00">toggle&#45;open.js</text>
</a>
</g>
</g>
<!-- src/init/index.js -->
<g id="node4" class="node">
<title>src/init/index.js</title>
<g id="a_node4"><a xlink:href="src/init/index.js" xlink:title="index.js">
<path fill="#ffffcc" stroke="black" d="M71.8,-71.3C71.8,-71.3 30.2,-71.3 30.2,-71.3 27.1,-71.3 24,-68.2 24,-65.1 24,-65.1 24,-58.9 24,-58.9 24,-55.8 27.1,-52.7 30.2,-52.7 30.2,-52.7 71.8,-52.7 71.8,-52.7 74.9,-52.7 78,-55.8 78,-58.9 78,-58.9 78,-65.1 78,-65.1 78,-68.2 74.9,-71.3 71.8,-71.3"/>
<text text-anchor="middle" x="51" y="-59.3" font-family="Helvetica,sans-Serif" font-size="9.00">index.js</text>
</a>
</g>
</g>
<!-- src/listeners/toggle&#45;class.js -->
<g id="node5" class="node">
<title>src/listeners/toggle&#45;class.js</title>
<g id="a_node5"><a xlink:href="src/listeners/toggle-class.js" xlink:title="toggle&#45;class.js">
<path fill="#ffffcc" stroke="black" d="M168.81,-71.3C168.81,-71.3 108.2,-71.3 108.2,-71.3 105.1,-71.3 102,-68.2 102,-65.1 102,-65.1 102,-58.9 102,-58.9 102,-55.8 105.1,-52.7 108.2,-52.7 108.2,-52.7 168.81,-52.7 168.81,-52.7 171.91,-52.7 175.01,-55.8 175.01,-58.9 175.01,-58.9 175.01,-65.1 175.01,-65.1 175.01,-68.2 171.91,-71.3 168.81,-71.3"/>
<text text-anchor="middle" x="138.5" y="-59.3" font-family="Helvetica,sans-Serif" font-size="9.00">toggle&#45;class.js</text>
</a>
</g>
</g>
<!-- src/init/index.js&#45;&gt;src/listeners/toggle&#45;class.js -->
<g id="edge1" class="edge">
<title>src/init/index.js&#45;&gt;src/listeners/toggle&#45;class.js</title>
<path fill="none" stroke="#000000" stroke-width="2" stroke-opacity="0.200000" d="M78.12,-62C83.6,-62 89.51,-62 95.41,-62"/>
<polygon fill="#000000" fill-opacity="0.200000" stroke="#000000" stroke-width="2" stroke-opacity="0.200000" points="95.78,-64.1 101.78,-62 95.78,-59.9 95.78,-64.1"/>
</g>
<!-- src/listeners/toggle&#45;class.js&#45;&gt;src/handlers/toggle&#45;active.js -->
<g id="edge2" class="edge">
<title>src/listeners/toggle&#45;class.js&#45;&gt;src/handlers/toggle&#45;active.js</title>
<path fill="none" stroke="#000000" stroke-width="2" stroke-opacity="0.200000" d="M175.16,-62.74C180.84,-62.86 186.77,-62.98 192.6,-63.1"/>
<polygon fill="#000000" fill-opacity="0.200000" stroke="#000000" stroke-width="2" stroke-opacity="0.200000" points="192.84,-65.21 198.88,-63.23 192.92,-61.01 192.84,-65.21"/>
</g>
<!-- src/listeners/toggle&#45;class.js&#45;&gt;src/handlers/toggle&#45;open.js -->
<g id="edge3" class="edge">
<title>src/listeners/toggle&#45;class.js&#45;&gt;src/handlers/toggle&#45;open.js</title>
<path fill="none" stroke="#000000" stroke-width="2" stroke-opacity="0.200000" d="M170.57,-52.66C179.7,-49.92 189.77,-46.9 199.21,-44.06"/>
<polygon fill="#000000" fill-opacity="0.200000" stroke="#000000" stroke-width="2" stroke-opacity="0.200000" points="199.86,-46.06 205,-42.32 198.65,-42.03 199.86,-46.06"/>
</g>
</g>
</svg>
